<?xml version="1.0" encoding="UTF-8" standalone="no"?>
<!-- Created with Inkscape (http://www.inkscape.org/) -->

<svg
   width="1000mm"
   height="1414mm"
   viewBox="0 0 1000 1414"
   version="1.1"
   id="svg1"
   inkscape:version="1.4.2 (f4327f4, 2025-05-13)"
   sodipodi:docname="plan_aile_droite.svg"
   xmlns:inkscape="http://www.inkscape.org/namespaces/inkscape"
   xmlns:sodipodi="http://sodipodi.sourceforge.net/DTD/sodipodi-0.dtd"
   xmlns="http://www.w3.org/2000/svg"
   xmlns:svg="http://www.w3.org/2000/svg">
  <sodipodi:namedview
     id="namedview1"
     pagecolor="#ffffff"
     bordercolor="#000000"
     borderopacity="0.25"
     inkscape:showpageshadow="2"
     inkscape:pageopacity="0.0"
     inkscape:pagecheckerboard="0"
     inkscape:deskcolor="#d1d1d1"
     inkscape:document-units="mm"
     inkscape:zoom="0.25251707"
     inkscape:cx="1358.324"
     inkscape:cy="902.90927"
     inkscape:window-width="1440"
     inkscape:window-height="938"
     inkscape:window-x="-6"
     inkscape:window-y="-6"
     inkscape:window-maximized="1"
     inkscape:current-layer="layer1" />
  <defs
     id="defs1">
    <rect
       x="1446.3207"
       y="333.2278"
       width="186.21554"
       height="254.82126"
       id="rect7" />
    <rect
       x="1610.9937"
       y="543.46774"
       width="171.41846"
       height="36.755409"
       id="rect6" />
    <clipPath
       id="p6609d689f0">
      <rect
         x="90"
         y="43.200001"
         width="558"
         height="277.20001"
         id="rect56" />
    </clipPath>
    <clipPath
       id="clipPath1">
      <rect
         x="90"
         y="43.200001"
         width="558"
         height="277.20001"
         id="rect1" />
    </clipPath>
    <clipPath
       id="p6609d689f0-2">
      <rect
         x="90"
         y="43.200001"
         width="558"
         height="277.20001"
         id="rect56-4" />
    </clipPath>
    <clipPath
       id="clipPath1-5">
      <rect
         x="90"
         y="43.200001"
         width="558"
         height="277.20001"
         id="rect1-5" />
    </clipPath>
  </defs>
  <g
     inkscape:label="Layer 1"
     inkscape:groupmode="layer"
     id="layer1">
    <g
       id="g12"
       inkscape:label="nervure 1">
      <path
         style="fill:none;stroke:#000000;stroke-width:0.499999;stroke-linecap:square;stroke-miterlimit:0;paint-order:fill markers stroke"
         d="m 0.47313131,19.279851 0.00468,-2.179292 0.3389191,-0.927258 L 1.1697703,15.471976 1.8052421,14.53531 2.0923809,14.121102 2.7890468,13.358585 3.6128069,12.52076 4.2294489,11.951227 4.7707771,11.522893 5.3732983,11.075743 5.9711127,10.633293 6.5359755,10.23321 7.053768,9.894309 7.6562892,9.494226 8.3388333,9.1129681 8.9695972,8.7740775 9.5391695,8.4587099 10.099326,8.1621767 10.692433,7.8703521 11.327905,7.5596931 11.864526,7.3196434 12.490583,7.0513519 13.154297,6.7924777 13.756819,6.5006432 14.491143,6.1994014 15.1172,5.9593517 15.602041,5.7993185 16.218684,5.568686 16.741183,5.3757025 17.41902,5.1450601 18.04037,4.9614938 18.581697,4.7779276 19.071247,4.622603 19.683183,4.448444 20.285706,4.2272188 20.850569,4.0624771 21.518991,3.9071525 22.112096,3.7471194 22.658133,3.5964935 23.260656,3.4364604 23.787859,3.2905431 24.329189,3.1775861 24.875224,3.055202 25.374186,2.9375364 26.028487,2.8198609 26.621595,2.669235 27.16763,2.5609767 27.779566,2.4433111 28.532718,2.2879766 29.262333,2.1561852 29.860147,2.0385196 30.523863,1.9255527 31.215821,1.8313804 31.827756,1.751344 32.576199,1.6477943 33.230501,1.539526 33.993067,1.440675 34.57676,1.365317 l 0.90849,-0.1411986 0.870832,-0.1176756 0.668422,-0.084715 0.644886,-0.061222 0.767272,-0.051765 0.668424,-0.07058 0.800222,-0.084715 0.739031,-0.080036 0.715493,-0.042407 0.776691,-0.051765 0.66842,-0.061222 0.626059,-0.023593 0.564863,-0.018815 0.67313,-0.03295 0.743735,-0.047086 0.682544,-0.042308 0.578987,-0.023493 0.795516,-0.023593 0.701374,-0.014136 0.673128,-0.014136 h 0.578986 l 0.616643,0.00498 0.852003,-0.03295 0.833174,0.018814 0.635472,-0.00896 h 0.722555 0.706081 l 0.750798,0.014136 0.651946,0.016425 0.543683,0.00697 0.656654,0.028272 0.609581,0.03295 0.649595,0.018815 0.520145,0.025882 0.649591,0.028272 0.621353,0.021204 0.586045,0.03295 0.458951,0.030561 0.654302,0.040018 0.618995,0.049376 0.560159,0.040018 0.51073,0.016425 0.534266,0.056444 0.64724,0.058833 0.456598,0.025882 0.466013,0.037629 0.458953,0.025883 0.578986,0.016425 0.574278,0.054154 0.503671,0.03295 0.508375,0.037629 0.449539,0.037629 0.546035,0.065901 0.456599,0.056444 0.487195,0.042407 0.491902,0.03534 0.430709,0.047086 0.451891,0.044697 0.437768,0.03295 0.494257,0.065901 0.409526,0.056444 0.440125,0.051765 0.62135,0.051765 0.560155,0.056444 0.515438,0.056444 0.513085,0.051765 0.541327,0.054154 0.510731,0.056444 0.635474,0.077647 0.564863,0.06829 0.520144,0.063512 0.468368,0.049475 0.508378,0.051765 0.515437,0.065901 0.553097,0.082426 0.414233,0.049376 0.578986,0.087104 0.487193,0.070579 0.527206,0.072969 0.595463,0.089394 0.435415,0.049475 0.423647,0.065901 0.43777,0.063512 0.435416,0.075258 0.426,0.058833 0.378931,0.051765 0.447185,0.075258 0.480134,0.082426 0.527206,0.082426 0.550738,0.080037 0.630767,0.077647 0.4919,0.06829 0.555454,0.094172 0.541328,0.1129669 0.522501,0.063511 0.444829,0.072969 0.57192,0.087104 0.501316,0.082326 0.461306,0.070579 0.498967,0.1035497 0.706079,0.1035497 0.609582,0.1200248 0.771985,0.1270928 0.611931,0.1270828 0.510734,0.089394 0.513084,0.105909 0.475422,0.091783 0.578988,0.1082483 0.588407,0.1106176 0.604872,0.091783 0.583688,0.1223742 0.543685,0.1059089 0.494255,0.1082583 0.531913,0.084715 0.54368,0.1129669 0.49897,0.1129669 0.68254,0.1176755 0.56957,0.112957 0.4919,0.105909 0.50132,0.1247334 0.54132,0.089394 0.48485,0.1082583 0.48248,0.105909 0.56487,0.1247235 0.53662,0.082326 0.47308,0.105909 0.6284,0.1388493 0.48014,0.1294421 0.68255,0.1294421 0.42129,0.1035497 0.43306,0.1035497 0.39541,0.094172 0.41187,0.087104 0.47778,0.1035596 0.44719,0.094172 0.40011,0.075258 0.48013,0.1129569 0.42366,0.105909 0.43306,0.1223842 0.52485,0.1082583 0.37186,0.080036 0.50839,0.1200249 0.47071,0.1153162 0.41659,0.098851 0.61429,0.1365 0.47307,0.1223837 0.5837,0.1365 0.51308,0.129433 0.5225,0.129442 0.50132,0.117675 0.49896,0.120025 0.50602,0.124733 0.55075,0.141199 0.51073,0.129442 0.51779,0.127093 0.52956,0.122374 0.45424,0.127083 0.5225,0.120025 0.52721,0.152975 0.40482,0.108258 0.47778,0.129442 0.52956,0.155325 0.60722,0.152975 0.59312,0.152975 0.64253,0.183567 0.56016,0.164741 0.48013,0.127093 0.53662,0.167091 0.54603,0.162383 0.50132,0.13415 0.68019,0.176509 0.48484,0.131791 0.56487,0.162393 0.72726,0.235341 0.68019,0.207099 0.80493,0.244758 0.87789,0.261234 0.79787,0.235351 0.73198,0.228283 0.84493,0.258874 0.52015,0.167101 0.80257,0.256525 0.6143,0.190625 0.62605,0.178857 0.56722,0.155335 0.54368,0.16944 0.71785,0.195343 0.42129,0.150616 0.71079,0.223584 0.62606,0.188275 0.35069,0.124724 0.6896,0.209458 0.43306,0.143568 0.44012,0.141199 0.49191,0.162392 0.63782,0.202391 0.49897,0.181217 0.50367,0.183566 0.56957,0.197692 0.47542,0.174159 0.49897,0.178858 0.48249,0.141209 0.64723,0.221225 0.69668,0.2377 0.54602,0.197683 -0.0235,0.449508 -0.79552,0.07536 -0.65901,0.04709 -0.65194,0.04241 -0.71785,0.06122 -0.82612,0.07058 -0.84494,0.05176 -0.75551,0.06122 -0.81199,0.06122 -0.69196,0.0447 -0.76727,0.05177 -0.90849,0.06122 -0.812,0.08233 -0.7602,0.08004 -1.06383,0.07526 -4.59355,0.28184 -5.44541,0.412705 -6.75019,0.559151 -7.97506,0.625708 -6.71024,0.545841 -7.801993,0.532521 -6.324132,0.519212 -7.176229,0.599089 -8.827161,0.705595 -5.298959,0.399396 -14.671994,0.931917 -7.975068,0.412706 -1.701419,0.0875 -1.066182,0.05644 -1.200334,0.07526 -1.207398,0.06122 -1.228579,0.03295 -0.734322,0.03763 -1.245054,0.04241 -1.00734,0.02827 -1.299187,0.07058 -1.492183,0.09417 -1.506304,0.02827 -1.256822,0.005 -1.247407,0.02349 -1.096778,0.01414 -1.318016,0.01881 -1.487473,0.02359 -1.365088,-0.01882 -0.828467,-0.02359 -1.977025,-0.03763 -0.866123,-0.02359 -1.388623,-0.03763 -0.903783,-0.06122 -1.463938,-0.09417 -1.355674,-0.07536 -1.24741,-0.09885 -1.308601,-0.164752 -1.129726,-0.131792 -0.936734,-0.103549 -1.350965,-0.221225 -1.115606,-0.235342 -1.223871,-0.273 L 9.4638865,25.869791 8.489496,25.639158 6.973779,25.191999 5.9617307,24.768383 4.9214398,24.330641 4.1259233,23.878774 3.3915999,23.459866 2.8455649,23.111558 2.3183585,22.650283 1.7958601,22.085449 1.3486756,21.520624 0.95327131,20.706332 0.55315911,19.736716 0.46371941,19.487249 Z"
         id="path5"
         inkscape:label="plan nervure 1" />
      <circle
         style="fill:none;stroke:#000000;stroke-width:0.499999;stroke-linecap:square;stroke-miterlimit:0;paint-order:fill markers stroke"
         id="path3"
         cx="37.901787"
         cy="18.383503"
         r="2" />
      <rect
         style="fill:none;stroke:#000000;stroke-width:0.499999;stroke-linecap:square;stroke-miterlimit:0;paint-order:fill markers stroke"
         id="rect4"
         width="5"
         height="5"
         x="53.955658"
         y="15.960402" />
      <circle
         style="fill:none;stroke:#000000;stroke-width:0.499999;stroke-linecap:square;stroke-miterlimit:0;paint-order:fill markers stroke"
         id="path4"
         cx="99.861008"
         cy="17.324371"
         r="2" />
      <rect
         style="fill:none;stroke:#000000;stroke-width:0.499999;stroke-linecap:square;stroke-miterlimit:0;paint-order:fill markers stroke"
         id="rect2"
         width="3"
         height="3"
         x="0.68198287"
         y="16.789429" />
      <rect
         style="fill:none;stroke:#000000;stroke-width:0.499999;stroke-linecap:square;stroke-miterlimit:0;paint-order:fill markers stroke"
         id="rect5"
         width="20"
         height="10"
         x="71.468292"
         y="10.698847" />
    </g>
    <g
       id="g13"
       inkscape:label="nervure 2">
      <path
         style="fill:none;stroke:#000000;stroke-width:0.499999;stroke-linecap:square;stroke-miterlimit:0;paint-order:fill markers stroke"
         d="m 0.34130814,46.424049 0.004504,-2.086839 0.32475019,-0.88792 0.33828087,-0.671573 0.6089055,-0.896929 0.2751349,-0.396636 0.6675413,-0.730168 0.789322,-0.802282 0.5908627,-0.545371 0.5186973,-0.410163 0.5773321,-0.42818 0.5728229,-0.42368 0.5412484,-0.38311 0.4961452,-0.324523 0.5773321,-0.38311 0.6540097,-0.365084 0.6043944,-0.324513 0.5457615,-0.301989 0.5367382,-0.283953 0.5683116,-0.279445 0.608906,-0.29748 0.514186,-0.229866 0.599884,-0.256909 0.635966,-0.247892 0.577334,-0.279454 0.703624,-0.288462 0.599885,-0.229866 0.464571,-0.153244 0.590864,-0.220848 0.500656,-0.184796 0.649499,-0.220858 0.595374,-0.175779 0.518696,-0.175778 0.469084,-0.148736 0.586354,-0.166771 0.577334,-0.211839 0.541248,-0.157753 0.640478,-0.148735 0.56831,-0.153245 0.523209,-0.144235 0.577334,-0.153245 0.505163,-0.139726 0.5187,-0.108165 0.523207,-0.117192 0.478103,-0.112675 0.626947,-0.112682 0.568313,-0.144236 0.523207,-0.103666 0.586354,-0.112674 0.721665,-0.148744 0.699113,-0.126201 0.572822,-0.112673 0.635969,-0.108175 0.66303,-0.09017 0.586352,-0.07664 0.717154,-0.09916 0.626949,-0.103675 0.730686,-0.09466 0.559291,-0.07216 0.87051,-0.135209 0.834426,-0.112683 0.640478,-0.08113 0.617926,-0.05862 0.735195,-0.04957 0.64048,-0.06759 0.766768,-0.08113 0.708136,-0.07664 0.685581,-0.04061 0.744221,-0.04957 0.640476,-0.05862 0.599886,-0.02259 0.541248,-0.01801 0.644989,-0.03155 0.712643,-0.04509 0.65401,-0.04051 0.554782,-0.02249 0.762258,-0.02259 0.672053,-0.01354 0.644987,-0.01354 h 0.554781 l 0.590864,0.0048 0.816384,-0.03155 0.798343,0.01801 0.608905,-0.0086 h 0.692348 0.676563 l 0.71941,0.01354 0.624691,0.01573 0.520954,0.0067 0.629202,0.02707 0.584097,0.03155 0.622438,0.01802 0.4984,0.02478 0.622434,0.02707 0.595377,0.0203 0.561545,0.03155 0.439764,0.02926 0.626948,0.03832 0.593117,0.04728 0.536742,0.03832 0.489378,0.01573 0.511931,0.05405 0.620181,0.05633 0.43751,0.02478 0.446531,0.03603 0.439766,0.02478 0.554781,0.01572 0.55027,0.05185 0.482614,0.03155 0.487122,0.03603 0.430746,0.03603 0.523207,0.06311 0.437511,0.05405 0.466827,0.04061 0.471338,0.03384 0.412703,0.04509 0.432999,0.0428 0.419467,0.03155 0.473594,0.0631 0.392405,0.05405 0.421725,0.04957 0.595374,0.04956 0.536738,0.05405 0.493889,0.05405 0.491635,0.04957 0.518697,0.05185 0.489379,0.05405 0.608908,0.07436 0.541248,0.06539 0.498399,0.06082 0.448787,0.04738 0.487125,0.04956 0.493889,0.06311 0.529974,0.07893 0.396916,0.04728 0.554781,0.0834 0.466825,0.06759 0.505166,0.06987 0.570569,0.0856 0.417212,0.04738 0.405936,0.0631 0.419469,0.06081 0.417213,0.07207 0.408191,0.05633 0.363089,0.04957 0.42849,0.07207 0.460062,0.07893 0.505166,0.07893 0.527713,0.07664 0.604398,0.07436 0.471335,0.06539 0.532233,0.09018 0.518697,0.108175 0.500658,0.06082 0.426232,0.06987 0.548011,0.0834 0.480358,0.07884 0.442021,0.06759 0.478107,0.09916 0.676561,0.09916 0.584097,0.114933 0.739712,0.121701 0.586349,0.121692 0.489382,0.0856 0.491634,0.101416 0.455547,0.08789 0.554783,0.103656 0.563808,0.105924 0.579585,0.08789 0.559286,0.117184 0.520956,0.101415 0.473592,0.103666 0.509673,0.08113 0.520951,0.108174 0.47811,0.108175 0.654008,0.112683 0.545759,0.108165 0.471335,0.101416 0.480362,0.119442 0.51869,0.0856 0.46458,0.103665 0.46232,0.101416 0.54125,0.119432 0.51419,0.07884 0.45331,0.101416 0.60212,0.13296 0.46007,0.12395 0.65402,0.123951 0.40367,0.09916 0.41496,0.09916 0.37888,0.09017 0.39465,0.08341 0.45781,0.09917 0.42849,0.09018 0.38339,0.07207 0.46005,0.108165 0.40595,0.101416 0.41496,0.117192 0.50291,0.103665 0.35631,0.07664 0.48714,0.114933 0.45103,0.110424 0.39917,0.09466 0.58861,0.130709 0.45329,0.117192 0.5593,0.130709 0.49163,0.123942 0.50066,0.123951 0.48036,0.112683 0.4781,0.114933 0.48487,0.119441 0.52772,0.135209 0.48938,0.123951 0.49614,0.121701 0.50742,0.117182 0.43525,0.121692 0.50066,0.114933 0.50517,0.146485 0.3879,0.103666 0.4578,0.12395 0.50742,0.148736 0.58184,0.146485 0.56832,0.146485 0.61567,0.17578 0.53674,0.157752 0.46006,0.121701 0.51419,0.160003 0.5232,0.155494 0.48036,0.128459 0.65176,0.16902 0.46457,0.1262 0.54125,0.155504 0.69686,0.225357 0.65175,0.198313 0.77128,0.234375 0.84119,0.250151 0.76451,0.225367 0.70138,0.218598 0.80961,0.247892 0.49841,0.160012 0.76901,0.245642 0.58862,0.182538 0.59988,0.17127 0.54351,0.148745 0.52095,0.162251 0.68784,0.187056 0.40367,0.144227 0.68108,0.214098 0.59989,0.180288 0.33603,0.119433 0.66077,0.200572 0.41495,0.137477 0.42172,0.135209 0.47135,0.155503 0.61115,0.193805 0.47811,0.173529 0.48262,0.175778 0.54576,0.189306 0.45554,0.16677 0.47811,0.17127 0.46232,0.135219 0.62017,0.21184 0.66756,0.227616 0.52319,0.189296 -0.0225,0.430438 -0.76226,0.07216 -0.63146,0.04509 -0.62469,0.04061 -0.68784,0.05862 -0.79158,0.06759 -0.80962,0.04956 -0.72392,0.05862 -0.77804,0.05862 -0.66304,0.0428 -0.73519,0.04957 -0.87051,0.05862 -0.77805,0.07884 -0.72842,0.07664 -1.01936,0.07207 -4.40151,0.269883 -5.21776,0.395197 -6.46799,0.53543 -7.64166,0.599163 -6.42971,0.522685 -7.475837,0.509929 -6.059747,0.497185 -6.87622,0.573674 -8.458134,0.675661 -5.077431,0.382452 -14.058619,0.892382 -7.641664,0.395198 -1.630289,0.08379 -1.02161,0.05404 -1.150153,0.07207 -1.156921,0.05862 -1.177218,0.03155 -0.703623,0.03603 -1.193003,0.04061 -0.965227,0.02707 -1.244874,0.06758 -1.429801,0.09018 -1.443331,0.02707 -1.20428,0.0048 -1.195258,0.02249 -1.050926,0.01354 -1.262915,0.01801 -1.425288,0.02259 -1.30802,-0.01802 -0.793832,-0.02259 -1.894374,-0.03603 -0.829914,-0.02259 -1.33057,-0.03603 -0.866,-0.05862 -1.402736,-0.09018 -1.298999,-0.07216 -1.195261,-0.09466 -1.253894,-0.157762 -1.082497,-0.126201 -0.897573,-0.09916 -1.294487,-0.21184 L 11.378297,53.284309 10.205592,53.02289 8.9562169,52.734404 8.0225612,52.513555 6.57021,52.085367 5.6004716,51.679722 4.6036708,51.26055 3.8414111,50.827853 3.1377871,50.426717 2.6145796,50.093185 2.1094139,49.651479 1.6087584,49.110607 1.1802694,48.569744 0.80139466,47.789997 0.41800967,46.861516 0.33230878,46.622632 Z"
         id="path5-2"
         inkscape:label="plan nervure 1" />
      <rect
         style="fill:none;stroke:#000000;stroke-width:0.499999;stroke-linecap:square;stroke-miterlimit:0;paint-order:fill markers stroke"
         id="rect2-7"
         width="3"
         height="3"
         x="0.44830114"
         y="43.90625" />
      <circle
         style="fill:none;stroke:#000000;stroke-width:0.499999;stroke-linecap:square;stroke-miterlimit:0;paint-order:fill markers stroke"
         id="path3-5"
         cx="39.459518"
         cy="45.772709"
         r="2" />
      <rect
         style="fill:none;stroke:#000000;stroke-width:0.499999;stroke-linecap:square;stroke-miterlimit:0;paint-order:fill markers stroke"
         id="rect5-0"
         width="20"
         height="10"
         x="73.026024"
         y="38.088051" />
      <circle
         style="fill:none;stroke:#000000;stroke-width:0.499999;stroke-linecap:square;stroke-miterlimit:0;paint-order:fill markers stroke"
         id="path4-0"
         cx="101.41874"
         cy="44.713577"
         r="2" />
      <rect
         style="fill:none;stroke:#000000;stroke-width:0.499999;stroke-linecap:square;stroke-miterlimit:0;paint-order:fill markers stroke"
         id="rect4-9"
         width="5"
         height="5"
         x="55.51339"
         y="43.349606" />
    </g>
    <g
       id="g14"
       inkscape:label="nervure 3">
      <path
         style="fill:none;stroke:#000000;stroke-width:0.499999;stroke-linecap:square;stroke-miterlimit:0;paint-order:fill markers stroke"
         d="m 0.288996,72.559916 0.004307,-1.994385 0.31058138,-0.848583 0.3235217,-0.641819 0.58233914,-0.857193 0.2631308,-0.379064 0.6384165,-0.697819 0.754884,-0.766738 0.5650835,-0.52121 L 4.2273269,65.461114 4.77947,65.051903 5.3273007,64.646994 5.8449345,64.280857 6.319433,63.97071 6.8715762,63.604573 7.4970511,63.255664 8.075076,62.945527 8.5970259,62.656918 9.1103463,62.385545 9.6538632,62.11848 l 0.5823378,-0.2843 0.491754,-0.219683 0.573711,-0.245527 0.60822,-0.236909 0.552144,-0.267074 0.672926,-0.275683 0.573711,-0.219681 0.444303,-0.146456 0.565084,-0.211063 0.478812,-0.176609 0.621162,-0.211074 0.569398,-0.167991 0.496065,-0.167991 0.448618,-0.142146 0.560772,-0.159382 0.552144,-0.202455 0.517634,-0.150763 0.612534,-0.142146 0.543514,-0.146456 0.500383,-0.137844 0.552145,-0.146456 0.483122,-0.133536 0.496068,-0.103374 0.50038,-0.111999 0.457243,-0.107683 0.599594,-0.10769 0.543518,-0.137846 0.50038,-0.09907 0.560771,-0.107682 0.690179,-0.142155 0.668611,-0.12061 0.54783,-0.107681 0.608221,-0.103382 0.634102,-0.08618 0.56077,-0.07325 0.685865,-0.09476 0.599594,-0.09908 0.698807,-0.09046 0.534889,-0.06897 0.83253,-0.129219 0.798021,-0.107691 0.612533,-0.07753 0.590966,-0.05602 0.703119,-0.04738 0.612536,-0.06459 0.733314,-0.07753 0.67724,-0.07325 0.655669,-0.03881 0.71175,-0.04738 0.612533,-0.05603 0.573713,-0.02159 0.517634,-0.01721 0.616848,-0.03016 0.68155,-0.04309 0.625475,-0.03872 0.530577,-0.0215 0.729002,-0.02159 0.642731,-0.01294 0.616846,-0.01294 h 0.530576 l 0.565085,0.0046 0.780765,-0.03016 0.763511,0.01721 0.582339,-0.0082 h 0.662141 0.647044 l 0.688023,0.01294 0.597436,0.01503 0.498224,0.0064 0.601751,0.02587 0.558612,0.03016 0.595281,0.01722 0.476655,0.02369 0.595278,0.02587 0.569401,0.0194 0.537044,0.03016 0.420578,0.02796 0.599594,0.03662 0.56724,0.04519 0.513323,0.03662 0.468027,0.01503 0.489595,0.05165 0.593123,0.05384 0.418421,0.02369 0.427049,0.03444 0.420579,0.02369 0.530576,0.01503 0.526262,0.04956 0.461558,0.03016 0.465869,0.03444 0.411952,0.03444 0.500381,0.06031 0.418421,0.05165 0.44646,0.03881 0.450773,0.03234 0.394697,0.04309 0.414108,0.04091 0.401165,0.03016 0.452932,0.06031 0.375284,0.05165 0.403325,0.04738 0.569398,0.04737 0.51332,0.05165 0.472341,0.05165 0.470185,0.04738 0.496066,0.04956 0.468027,0.05165 0.582342,0.07106 0.517633,0.06249 0.476654,0.05812 0.429208,0.04528 0.465871,0.04737 0.47234,0.06031 0.506852,0.07544 0.379598,0.04519 0.530577,0.07971 0.446457,0.06459 0.483126,0.06678 0.545675,0.08181 0.399009,0.04528 0.388225,0.06031 0.401168,0.05812 0.39901,0.06887 0.390381,0.05383 0.347248,0.04738 0.409795,0.06888 0.439989,0.07544 0.483125,0.07544 0.504691,0.07325 0.57803,0.07107 0.45077,0.06249 0.509007,0.08618 0.496067,0.103382 0.478819,0.05812 0.407635,0.06678 0.5241,0.07971 0.459402,0.07534 0.422729,0.06459 0.457248,0.09476 0.647044,0.09476 0.558612,0.109841 0.707443,0.116309 0.560766,0.116301 0.468026,0.08181 0.470188,0.09692 0.435668,0.08399 0.530578,0.09906 0.539211,0.101232 0.554296,0.08399 0.534886,0.111992 0.498229,0.09692 0.452932,0.09907 0.487436,0.07753 0.498221,0.103382 0.457248,0.103382 0.625472,0.107691 0.521947,0.103373 0.45077,0.09692 0.45941,0.114151 0.496059,0.08181 0.444308,0.09907 0.442138,0.09692 0.517639,0.114141 0.491751,0.07534 0.43353,0.09692 0.57586,0.127069 0.439992,0.118459 0.625481,0.11846 0.386066,0.09476 0.39685,0.09476 0.362351,0.08618 0.37743,0.07971 0.43783,0.09477 0.40981,0.08618 0.36665,0.06888 0.43998,0.103373 0.38824,0.09692 0.39685,0.112 0.48097,0.09907 0.34076,0.07325 0.46589,0.109841 0.43135,0.105532 0.38176,0.09046 0.56293,0.124918 0.43351,0.112 0.5349,0.124919 0.47018,0.118451 0.47882,0.118458 0.4594,0.107691 0.45724,0.109842 0.46371,0.114149 0.5047,0.129219 0.46803,0.11846 0.4745,0.116309 0.48528,0.111991 0.41626,0.1163 0.47881,0.109841 0.48313,0.139996 0.37097,0.09907 0.43783,0.11846 0.48528,0.142146 0.55645,0.139996 0.54353,0.139995 0.58881,0.167992 0.51333,0.150763 0.43998,0.116309 0.49175,0.152914 0.50038,0.148606 0.4594,0.122767 0.62332,0.161533 0.4443,0.120609 0.51764,0.148615 0.66645,0.215372 0.62332,0.189528 0.73763,0.223991 0.80449,0.239069 0.73116,0.215382 0.67077,0.208914 0.77429,0.236909 0.47666,0.152923 0.73546,0.23476 0.56294,0.174451 0.5737,0.163681 0.5198,0.142156 0.49822,0.155063 0.65783,0.178769 0.38607,0.137836 0.65136,0.204614 0.57371,0.172301 0.32137,0.114141 0.63194,0.191686 0.39685,0.131387 0.40332,0.129219 0.45078,0.148613 0.58449,0.185219 0.45725,0.165841 0.46156,0.167991 0.52194,0.180918 0.43568,0.159382 0.45725,0.163683 0.44214,0.129228 0.59312,0.202454 0.63843,0.217532 0.50037,0.18091 -0.0215,0.411369 -0.72901,0.06896 -0.60391,0.04309 -0.59743,0.03882 -0.65783,0.05602 -0.75705,0.06459 -0.77429,0.04737 -0.69234,0.05602 -0.7441,0.05603 -0.63411,0.04091 -0.70312,0.04738 -0.83252,0.05603 -0.74411,0.07534 -0.69663,0.07325 -0.97489,0.06888 -4.20947,0.257924 -4.99011,0.377693 -6.18579,0.511708 -7.30826,0.57262 -6.149188,0.499527 -7.149648,0.487337 -5.795366,0.475157 -6.576212,0.548259 -8.089104,0.645723 -4.855904,0.365512 -13.445243,0.85285 -7.308259,0.377683 -1.55916,0.08008 -0.977037,0.05162 -1.099972,0.06891 -1.106445,0.05601 -1.125856,0.03011 -0.672924,0.03441 -1.140952,0.0388 -0.923115,0.0259 -1.19056,0.06461 -1.367419,0.08621 -1.38036,0.0259 -1.151736,0.0046 -1.143109,0.02151 -1.005075,0.0129 -1.207814,0.01721 -1.363103,0.02159 -1.250951,-0.01721 -0.759197,-0.02159 -1.811722,-0.03441 -0.793705,-0.02159 -1.272519,-0.03441 -0.828215,-0.05601 -1.341536,-0.08621 -1.242324,-0.069 -1.143112,-0.09042 -1.199186,-0.150772 -1.03526,-0.120587 -0.858412,-0.09476 -1.238009,-0.20245 L 10.844443,79.116271 9.7229022,78.866434 8.528038,78.590735 7.6351171,78.379664 6.2461318,77.970445 5.318703,77.582777 4.3653925,77.182178 3.6363901,76.768648 2.9634651,76.385281 2.463085,76.066524 1.9799597,75.644392 1.5011477,75.127477 1.0913535,74.61058 0.72900896,73.865377 0.36235106,72.97803 0.28038926,72.74973 Z"
         id="path5-7"
         inkscape:label="plan nervure 1" />
      <rect
         style="fill:none;stroke:#000000;stroke-width:0.499999;stroke-linecap:square;stroke-miterlimit:0;paint-order:fill markers stroke"
         id="rect2-9"
         width="3"
         height="3"
         x="0.32285699"
         y="70.060974" />
      <circle
         style="fill:none;stroke:#000000;stroke-width:0.499999;stroke-linecap:square;stroke-miterlimit:0;paint-order:fill markers stroke"
         id="path3-8"
         cx="35.305305"
         cy="71.730888"
         r="2" />
      <circle
         style="fill:none;stroke:#000000;stroke-width:0.499999;stroke-linecap:square;stroke-miterlimit:0;paint-order:fill markers stroke"
         id="path4-9"
         cx="97.264526"
         cy="70.671761"
         r="2" />
      <rect
         style="fill:none;stroke:#000000;stroke-width:0.499999;stroke-linecap:square;stroke-miterlimit:0;paint-order:fill markers stroke"
         id="rect4-3"
         width="5"
         height="5"
         x="51.359173"
         y="69.307785" />
      <rect
         style="fill:none;stroke:#000000;stroke-width:0.499999;stroke-linecap:square;stroke-miterlimit:0;paint-order:fill markers stroke"
         id="rect5-4"
         width="20"
         height="10"
         x="68.871811"
         y="64.046234" />
    </g>
    <g
       id="g15"
       inkscape:label="nervure 4">
      <path
         style="fill:none;stroke:#000000;stroke-width:0.499999;stroke-linecap:square;stroke-miterlimit:0;paint-order:fill markers stroke"
         d="m 0.40764925,98.391142 0.00411,-1.90193 0.2964126,-0.80925 0.30876265,-0.61207 0.5557726,-0.81745 0.2511267,-0.36149 0.6092919,-0.66548 0.720446,-0.73119 0.5393042,-0.49705 0.473436,-0.37382 0.5269543,-0.39024 0.5228385,-0.38614 0.4940192,-0.34916 0.4528518,-0.29577 0.5269547,-0.34917 0.596941,-0.33273 0.5516543,-0.29575 0.498139,-0.27524 0.489902,-0.2588 0.518721,-0.25468 0.555773,-0.27112 0.4693193,-0.2095 0.547539,-0.23414 0.580472,-0.22593 0.526955,-0.25469 0.642227,-0.2629 0.547539,-0.2095 0.424033,-0.13966 0.539305,-0.20129 0.456969,-0.16842 0.592824,-0.20129 0.543422,-0.1602 0.473435,-0.1602 0.428152,-0.13556 0.535188,-0.152 0.526956,-0.19306 0.49402,-0.14379 0.58459,-0.13555 0.518719,-0.13966 0.477554,-0.13146 0.526956,-0.13966 0.461083,-0.12735 0.473437,-0.0986 0.477553,-0.10681 0.436383,-0.10269 0.572241,-0.1027 0.518721,-0.13146 0.477553,-0.0945 0.535189,-0.10268 0.658693,-0.13557 0.638108,-0.11502 0.522838,-0.10269 0.580474,-0.0986 0.605175,-0.0822 0.535187,-0.0698 0.654575,-0.0904 0.572241,-0.0945 0.666927,-0.0862 0.510488,-0.0658 0.794549,-0.12323 0.761615,-0.10269 0.58459,-0.0739 0.564006,-0.0534 0.671042,-0.0452 0.584592,-0.0616 0.69986,-0.0739 0.646344,-0.0698 0.625757,-0.037 0.679281,-0.0452 0.584588,-0.0534 0.54754,-0.0206 0.49402,-0.0164 0.588707,-0.0287 0.650458,-0.0411 0.596941,-0.0369 0.506372,-0.0205 0.695744,-0.0206 0.613409,-0.0123 0.588706,-0.0123 h 0.506371 l 0.539305,0.004 0.745147,-0.0287 0.728679,0.0164 0.555773,-0.008 h 0.631934 0.617526 l 0.656635,0.0123 0.57018,0.0143 0.475496,0.006 0.574298,0.0247 0.533129,0.0287 0.568124,0.0164 0.45491,0.0226 0.568121,0.0247 0.543424,0.0185 0.512545,0.0287 0.40139,0.0267 0.572241,0.0349 0.541362,0.0431 0.489906,0.0349 0.446675,0.0143 0.46726,0.0492 0.566064,0.0513 0.399333,0.0226 0.407567,0.0328 0.401392,0.0226 0.506371,0.0143 0.502253,0.0472 0.440502,0.0287 0.444616,0.0328 0.393159,0.0328 0.477553,0.0575 0.399333,0.0492 0.426092,0.037 0.430209,0.0308 0.376691,0.0411 0.395216,0.039 0.382864,0.0287 0.432268,0.0575 0.358164,0.0492 0.384926,0.0452 0.543422,0.0452 0.489902,0.0492 0.450793,0.0492 0.448735,0.0452 0.473435,0.0473 0.446676,0.0492 0.555774,0.0678 0.49402,0.0596 0.454909,0.0554 0.409626,0.0432 0.444618,0.0452 0.450793,0.0575 0.483728,0.0719 0.362281,0.0431 0.506371,0.076 0.426091,0.0616 0.461085,0.0637 0.520781,0.078 0.380807,0.0432 0.370514,0.0575 0.382866,0.0554 0.380808,0.0657 0.372572,0.0513 0.331406,0.0452 0.391101,0.0657 0.419916,0.0719 0.461085,0.0719 0.481666,0.0698 0.551658,0.0677 0.430207,0.0596 0.48579,0.0822 0.473436,0.0986 0.456971,0.0554 0.389039,0.0637 0.500191,0.076 0.438442,0.0718 0.403451,0.0616 0.436387,0.0904 0.617525,0.0904 0.533129,0.10475 0.675165,0.11092 0.535184,0.11092 0.446679,0.078 0.448734,0.0924 0.415796,0.0801 0.506373,0.0945 0.51461,0.0965 0.529011,0.0801 0.510485,0.10679 0.475493,0.0924 0.432271,0.0945 0.4652,0.0739 0.475493,0.0986 0.43639,0.0986 0.596937,0.10269 0.498136,0.0986 0.430207,0.0924 0.438446,0.10885 0.473429,0.078 0.424041,0.0945 0.421969,0.0924 0.494025,0.10884 0.469319,0.0718 0.413747,0.0924 0.549588,0.12118 0.419922,0.11297 0.596946,0.11296 0.368453,0.0904 0.378746,0.0904 0.345819,0.0822 0.360214,0.076 0.417858,0.0904 0.391105,0.0822 0.349929,0.0657 0.419914,0.0986 0.37052,0.0924 0.37875,0.10681 0.45903,0.0945 0.32522,0.0698 0.44463,0.10475 0.411673,0.10063 0.36434,0.0862 0.53725,0.11913 0.41374,0.10681 0.51049,0.11913 0.44873,0.11296 0.45697,0.11296 0.43845,0.1027 0.43638,0.10475 0.44256,0.10886 0.48167,0.12322 0.44668,0.11297 0.45285,0.11092 0.46314,0.1068 0.39727,0.11091 0.45697,0.10475 0.46109,0.1335 0.35405,0.0945 0.41786,0.11297 0.46314,0.13556 0.53107,0.1335 0.51873,0.13351 0.56194,0.16021 0.48991,0.14377 0.41991,0.11092 0.46932,0.14582 0.47755,0.14172 0.43845,0.11707 0.59488,0.15405 0.42403,0.11502 0.49403,0.14173 0.63604,0.20538 0.59489,0.18075 0.70397,0.21361 0.76779,0.22798 0.6978,0.2054 0.64018,0.19922 0.73896,0.22594 0.45492,0.14583 0.70191,0.22387 0.53726,0.16637 0.54753,0.1561 0.49608,0.13556 0.47549,0.14787 0.62782,0.17048 0.36845,0.13145 0.62165,0.19513 0.54754,0.16431 0.30671,0.10885 0.60311,0.1828 0.37874,0.1253 0.38493,0.12323 0.43021,0.14172 0.55783,0.17663 0.43639,0.15816 0.4405,0.1602 0.49814,0.17254 0.41579,0.15198 0.43639,0.1561 0.42198,0.12324 0.56605,0.19307 0.60931,0.20745 0.47754,0.17252 -0.0206,0.3923 -0.69574,0.0658 -0.57636,0.0411 -0.57018,0.037 -0.62782,0.0534 -0.72251,0.0616 -0.73897,0.0452 -0.66075,0.0534 -0.71015,0.0534 -0.60518,0.039 -0.67104,0.0452 -0.79455,0.0534 -0.71016,0.0718 -0.66486,0.0698 -0.93041,0.0657 -4.01743,0.24597 -4.76246,0.360168 -5.9036,0.48799 -6.974853,0.54608 -5.868658,0.47637 -6.823483,0.46474 -5.530978,0.45314 -6.276203,0.52284 -7.72008,0.61579 -4.634377,0.34857 -12.831868,0.81331 -6.974854,0.36018 -1.488031,0.0764 -0.932464,0.0492 -1.049791,0.0657 -1.055969,0.0534 -1.074494,0.0287 -0.642225,0.0328 -1.088902,0.037 -0.881002,0.0247 -1.136246,0.0616 -1.305037,0.0822 -1.317387,0.0247 -1.099195,0.004 -1.09096,0.0205 -0.959223,0.0123 -1.152713,0.0164 -1.300918,0.0206 -1.193882,-0.0164 -0.724563,-0.0206 -1.729071,-0.0328 -0.757496,-0.0206 -1.214465,-0.0328 -0.790433,-0.0534 -1.280334,-0.0822 -1.185649,-0.0658 -1.090963,-0.0862 -1.144479,-0.14378 -0.988039,-0.11503 -0.819251,-0.0904 -1.18153,-0.19307 -0.975689,-0.20539 -1.0703763,-0.23826 -1.140355,-0.26293 -0.8521851,-0.20127 -1.3256199,-0.39025 -0.8851194,-0.36971 -0.9098202,-0.38203 -0.6957452,-0.39436 -0.642226,-0.36558 -0.4775526,-0.30398 -0.4610851,-0.40258 -0.4569684,-0.49294 -0.3910993,-0.49294 -0.34581425,-0.710658 -0.349931,-0.84621 -0.078223,-0.21772 z"
         id="path5-27"
         inkscape:label="nervure 4" />
      <circle
         style="fill:none;stroke:#000000;stroke-width:0.499999;stroke-linecap:square;stroke-miterlimit:0;paint-order:fill markers stroke"
         id="path3-6"
         cx="37.616287"
         cy="96.826744"
         r="2" />
      <circle
         style="fill:none;stroke:#000000;stroke-width:0.499999;stroke-linecap:square;stroke-miterlimit:0;paint-order:fill markers stroke"
         id="path4-1"
         cx="99.575508"
         cy="95.767609"
         r="2" />
      <rect
         style="fill:none;stroke:#000000;stroke-width:0.499999;stroke-linecap:square;stroke-miterlimit:0;paint-order:fill markers stroke"
         id="rect4-8"
         width="5"
         height="5"
         x="53.670155"
         y="94.403641" />
      <rect
         style="fill:none;stroke:#000000;stroke-width:0.499999;stroke-linecap:square;stroke-miterlimit:0;paint-order:fill markers stroke"
         id="rect5-49"
         width="20"
         height="10"
         x="71.182785"
         y="89.142082" />
      <rect
         style="fill:none;stroke:#000000;stroke-width:0.499999;stroke-linecap:square;stroke-miterlimit:0;paint-order:fill markers stroke"
         id="rect2-6"
         width="3"
         height="3"
         x="0.4003059"
         y="96.104218" />
    </g>
    <g
       id="g16"
       inkscape:label="nervure 5">
      <path
         style="fill:none;stroke:#000000;stroke-width:0.499999;stroke-linecap:square;stroke-miterlimit:0;paint-order:fill markers stroke"
         d="m 0.37684286,122.75807 0.003914,-1.80947 0.28224381,-0.76991 0.29400335,-0.58231 0.52920628,-0.77773 0.2391227,-0.34392 0.5801672,-0.63312 0.686008,-0.69565 0.5135251,-0.47288 0.4508052,-0.35566 0.5017654,-0.37127 0.4978463,-0.36737 0.4704047,-0.33218 0.4312051,-0.28139 0.5017654,-0.33219 0.5684066,-0.31657 0.5252855,-0.28138 0.4743271,-0.26185 0.4664848,-0.24621 0.4939257,-0.24231 0.5292062,-0.25794 0.4468853,-0.19932 0.5213654,-0.22276 0.552725,-0.21494 0.501766,-0.24232 0.611528,-0.25012 0.521366,-0.19932 0.403764,-0.13287 0.513526,-0.19149 0.435125,-0.16024 0.564487,-0.19151 0.517445,-0.15241 0.450805,-0.15242 0.407686,-0.12897 0.509605,-0.1446 0.501768,-0.18368 0.470404,-0.13679 0.556646,-0.12897 0.493924,-0.13287 0.454727,-0.12507 0.501767,-0.13288 0.439043,-0.12115 0.450806,-0.0938 0.454726,-0.10162 0.415524,-0.0977 0.544886,-0.0977 0.493927,-0.12507 0.454725,-0.0899 0.509606,-0.0977 0.627207,-0.12898 0.607606,-0.10943 0.497846,-0.0977 0.552727,-0.0938 0.576246,-0.0782 0.509605,-0.0664 0.623286,-0.086 0.544888,-0.0899 0.635047,-0.082 0.486086,-0.0626 0.756569,-0.11723 0.725208,-0.0977 0.556646,-0.0703 0.537046,-0.0508 0.638967,-0.043 0.556647,-0.0586 0.666407,-0.0703 0.615447,-0.0664 0.595846,-0.0352 0.64681,-0.043 0.556645,-0.0508 0.521367,-0.0196 0.470405,-0.0156 0.560567,-0.0273 0.619365,-0.0391 0.568406,-0.0351 0.482167,-0.0195 0.662487,-0.0196 0.584088,-0.0117 0.560565,-0.0117 h 0.482166 l 0.513526,0.004 0.709528,-0.0273 0.693848,0.0156 0.529206,-0.007 h 0.601727 0.588008 l 0.625247,0.0117 0.542925,0.0136 0.452767,0.006 0.546846,0.0235 0.507645,0.0273 0.540967,0.0156 0.433165,0.0215 0.540964,0.0235 0.517448,0.0176 0.488045,0.0273 0.382203,0.0254 0.544888,0.0332 0.515484,0.041 0.466487,0.0332 0.425324,0.0136 0.444925,0.0468 0.539006,0.0488 0.380244,0.0215 0.388085,0.0312 0.382205,0.0215 0.482166,0.0136 0.478245,0.0449 0.419446,0.0273 0.423363,0.0312 0.374365,0.0312 0.454725,0.0547 0.380245,0.0468 0.405725,0.0352 0.409644,0.0293 0.358685,0.0391 0.376324,0.0371 0.364563,0.0273 0.411605,0.0547 0.341044,0.0468 0.366526,0.043 0.517446,0.043 0.466484,0.0468 0.429244,0.0468 0.427285,0.043 0.450805,0.045 0.425325,0.0468 0.529208,0.0645 0.470404,0.0567 0.433164,0.0527 0.390046,0.0411 0.423365,0.043 0.429244,0.0547 0.460606,0.0684 0.344964,0.041 0.482166,0.0723 0.405723,0.0586 0.439045,0.0606 0.495887,0.0742 0.362604,0.0411 0.352803,0.0547 0.364564,0.0527 0.362605,0.0625 0.354763,0.0488 0.315564,0.043 0.372406,0.0625 0.399844,0.0684 0.439045,0.0684 0.458641,0.0664 0.525288,0.0645 0.409643,0.0567 0.462569,0.0782 0.450806,0.0938 0.435126,0.0527 0.370443,0.0606 0.476282,0.0723 0.417484,0.0683 0.384165,0.0586 0.415528,0.086 0.588006,0.086 0.507646,0.0997 0.642891,0.10553 0.509602,0.10552 0.425327,0.0742 0.427284,0.0879 0.395921,0.0762 0.482167,0.0899 0.490012,0.0918 0.503723,0.0762 0.486082,0.10162 0.452768,0.0879 0.411604,0.0899 0.442964,0.0703 0.452764,0.0938 0.41553,0.0938 0.568403,0.0977 0.474325,0.0938 0.409643,0.0879 0.417487,0.10356 0.450799,0.0742 0.403772,0.0899 0.401798,0.0879 0.47041,0.10356 0.446885,0.0683 0.39397,0.0879 0.523317,0.11529 0.399849,0.10747 0.568412,0.10748 0.35084,0.086 0.360642,0.086 0.329288,0.0782 0.342996,0.0723 0.397884,0.086 0.37241,0.0782 0.333202,0.0625 0.399841,0.0938 0.352814,0.0879 0.360642,0.10161 0.437083,0.0899 0.309676,0.0664 0.423375,0.0997 0.391997,0.0957 0.346926,0.082 0.511566,0.11334 0.393962,0.10162 0.486092,0.11334 0.427281,0.10747 0.435126,0.10747 0.417487,0.0977 0.415522,0.0997 0.421402,0.10358 0.458652,0.11723 0.425321,0.10748 0.4312,0.10552 0.44101,0.10161 0.37828,0.10552 0.43513,0.0996 0.43904,0.12703 0.33713,0.0899 0.39788,0.10748 0.44101,0.12896 0.50568,0.12702 0.49393,0.12701 0.53509,0.15242 0.46649,0.13679 0.39984,0.10552 0.44688,0.13874 0.45472,0.13483 0.41749,0.11139 0.56645,0.14655 0.40376,0.10943 0.47041,0.13483 0.60564,0.19541 0.56645,0.17195 0.67033,0.20323 0.73108,0.2169 0.66445,0.19541 0.60958,0.18955 0.70364,0.21494 0.43316,0.13875 0.66837,0.213 0.51157,0.15827 0.52136,0.14851 0.47237,0.12897 0.45276,0.14069 0.59781,0.1622 0.35084,0.12505 0.59193,0.18565 0.52137,0.15632 0.29204,0.10355 0.57429,0.17392 0.36064,0.11921 0.36652,0.11724 0.40965,0.13483 0.53116,0.16805 0.41553,0.15046 0.41945,0.15242 0.47432,0.16415 0.39592,0.1446 0.41553,0.1485 0.40181,0.11725 0.539,0.18369 0.58018,0.19736 0.45471,0.16414 -0.0196,0.37323 -0.66249,0.0626 -0.54881,0.0391 -0.54292,0.0352 -0.59781,0.0508 -0.68797,0.0586 -0.70365,0.043 -0.62917,0.0508 -0.67621,0.0508 -0.57624,0.0371 -0.63897,0.043 -0.75657,0.0508 -0.67621,0.0683 -0.63308,0.0664 -0.88593,0.0625 -3.8254,0.23401 -4.53481,0.34267 -5.6214,0.46427 -6.641445,0.51953 -5.588131,0.45321 -6.497316,0.44216 -5.266589,0.43111 -5.976196,0.49742 -7.351053,0.58586 -4.412849,0.33162 -12.218493,0.77377 -6.641449,0.34268 -1.416902,0.0727 -0.887892,0.0468 -0.99961,0.0625 -1.005493,0.0508 -1.023131,0.0273 -0.611527,0.0312 -1.036851,0.0352 -0.838889,0.0235 -1.081933,0.0586 -1.242655,0.0782 -1.254415,0.0235 -1.046652,0.004 -1.038811,0.0195 -0.913371,0.0117 -1.097613,0.0156 -1.238733,0.0196 -1.136813,-0.0156 -0.689928,-0.0196 -1.64642,-0.0312 -0.721287,-0.0196 -1.156413,-0.0312 -0.752649,-0.0508 -1.219133,-0.0782 -1.128974,-0.0626 -1.038814,-0.082 -1.089772,-0.1368 -0.940809,-0.10942 -0.78009,-0.086 -1.125052,-0.18369 -0.9290504,-0.1954 -1.019211,-0.22668 -1.085845,-0.25014 -0.81145,-0.1915 -1.2622536,-0.37128 -0.8428099,-0.35172 -0.8663299,-0.36347 -0.662488,-0.37518 -0.611527,-0.34782 -0.4547251,-0.28921 -0.4390448,-0.38299 -0.435125,-0.46899 -0.3724044,-0.46898 -0.32928408,-0.67611 -0.33320391,-0.80508 -0.0744835,-0.20713 z"
         id="path5-1"
         inkscape:label="nervure 5" />
      <rect
         style="fill:none;stroke:#000000;stroke-width:0.499999;stroke-linecap:square;stroke-miterlimit:0;paint-order:fill markers stroke"
         id="rect2-60"
         width="3"
         height="3"
         x="0.28443202"
         y="120.52014" />
      <circle
         style="fill:none;stroke:#000000;stroke-width:0.499999;stroke-linecap:square;stroke-miterlimit:0;paint-order:fill markers stroke"
         id="path3-82"
         cx="33.626434"
         cy="120.6788"
         r="2" />
      <circle
         style="fill:none;stroke:#000000;stroke-width:0.499999;stroke-linecap:square;stroke-miterlimit:0;paint-order:fill markers stroke"
         id="path4-91"
         cx="95.585655"
         cy="119.61967"
         r="2" />
      <rect
         style="fill:none;stroke:#000000;stroke-width:0.499999;stroke-linecap:square;stroke-miterlimit:0;paint-order:fill markers stroke"
         id="rect4-35"
         width="5"
         height="5"
         x="49.680309"
         y="118.2557" />
      <rect
         style="fill:none;stroke:#000000;stroke-width:0.499999;stroke-linecap:square;stroke-miterlimit:0;paint-order:fill markers stroke"
         id="rect5-9"
         width="20"
         height="10"
         x="67.192947"
         y="112.99415" />
    </g>
    <text
       xml:space="preserve"
       style="font-size:8.46666667px;text-align:start;writing-mode:lr-tb;direction:ltr;text-anchor:start;fill:none;stroke:#000000;stroke-width:0.499999;stroke-linecap:square;stroke-miterlimit:0;paint-order:fill markers stroke"
       x="219.96829"
       y="29.100864"
       id="text5"><tspan
         sodipodi:role="line"
         style="stroke-width:0.5;font-size:8.46666667px"
         x="219.96829"
         y="29.100864"
         id="tspan9">laisser un trou pour faire passer les câbles</tspan><tspan
         sodipodi:role="line"
         style="stroke-width:0.5;font-size:8.46666667px"
         x="219.96829"
         y="33.069614"
         id="tspan10">PENSER aux ailerons : pourquoi pas faire un trou pour faire passer une baguette de carbonne comme charnière</tspan><tspan
         sodipodi:role="line"
         style="stroke-width:0.5;font-size:8.46666667px"
         x="219.96829"
         y="37.038364"
         id="tspan11">laisser un petit trou pour faire passer les câbes d'actionnemen des ailerons</tspan><tspan
         sodipodi:role="line"
         style="stroke-width:0.5;font-size:8.46666667px"
         x="219.96829"
         y="41.007114"
         id="tspan12">voir où mettre les ailerons</tspan></text>
  </g>
</svg>
