<?xml version="1.0" encoding="UTF-8" standalone="no"?>
<svg
   width="720pt"
   height="360pt"
   viewBox="0 0 720 360"
   version="1.1"
   id="svg56"
   sodipodi:docname="plan_nervure_4418.svg"
   inkscape:version="1.4.2 (f4327f4, 2025-05-13)"
   xmlns:inkscape="http://www.inkscape.org/namespaces/inkscape"
   xmlns:sodipodi="http://sodipodi.sourceforge.net/DTD/sodipodi-0.dtd"
   xmlns="http://www.w3.org/2000/svg"
   xmlns:svg="http://www.w3.org/2000/svg"
   xmlns:rdf="http://www.w3.org/1999/02/22-rdf-syntax-ns#"
   xmlns:cc="http://creativecommons.org/ns#"
   xmlns:dc="http://purl.org/dc/elements/1.1/">
  <sodipodi:namedview
     id="namedview56"
     pagecolor="#ffffff"
     bordercolor="#000000"
     borderopacity="0.25"
     inkscape:showpageshadow="2"
     inkscape:pageopacity="0.0"
     inkscape:pagecheckerboard="0"
     inkscape:deskcolor="#d1d1d1"
     inkscape:document-units="pt"
     inkscape:zoom="0.76974276"
     inkscape:cx="496.91926"
     inkscape:cy="28.580977"
     inkscape:window-width="1440"
     inkscape:window-height="938"
     inkscape:window-x="-6"
     inkscape:window-y="-6"
     inkscape:window-maximized="1"
     inkscape:current-layer="figure_1" />
  <metadata
     id="metadata1">
    <rdf:RDF>
      <cc:Work>
        <dc:type
           rdf:resource="http://purl.org/dc/dcmitype/StillImage" />
        <dc:date>2026-05-10T09:45:16.618833</dc:date>
        <dc:format>image/svg+xml</dc:format>
        <dc:creator>
          <cc:Agent>
            <dc:title>Matplotlib v3.10.8, https://matplotlib.org/</dc:title>
          </cc:Agent>
        </dc:creator>
      </cc:Work>
    </rdf:RDF>
  </metadata>
  <defs
     id="defs1">
    <inkscape:path-effect
       effect="simplify"
       id="path-effect63"
       is_visible="true"
       lpeversion="1.3"
       threshold="10.869565"
       steps="1"
       smooth_angles="360"
       helper_size="0"
       simplify_individual_paths="false"
       simplify_just_coalesce="false" />
    <inkscape:path-effect
       effect="simplify"
       id="path-effect62"
       is_visible="true"
       lpeversion="1.3"
       threshold="10.869565"
       steps="1"
       smooth_angles="360"
       helper_size="0"
       simplify_individual_paths="false"
       simplify_just_coalesce="false" />
    <inkscape:path-effect
       effect="simplify"
       id="path-effect61"
       is_visible="true"
       lpeversion="1.3"
       threshold="10.869565"
       steps="1"
       smooth_angles="360"
       helper_size="0"
       simplify_individual_paths="false"
       simplify_just_coalesce="false" />
    <inkscape:path-effect
       effect="simplify"
       id="path-effect60"
       is_visible="true"
       lpeversion="1.3"
       threshold="10.869565"
       steps="1"
       smooth_angles="360"
       helper_size="0"
       simplify_individual_paths="false"
       simplify_just_coalesce="false" />
    <inkscape:path-effect
       effect="simplify"
       id="path-effect59"
       is_visible="true"
       lpeversion="1.3"
       threshold="0.00108696"
       steps="1"
       smooth_angles="360"
       helper_size="0"
       simplify_individual_paths="false"
       simplify_just_coalesce="false" />
    <inkscape:path-effect
       effect="simplify"
       id="path-effect58"
       is_visible="true"
       lpeversion="1.3"
       threshold="0.00961538"
       steps="1"
       smooth_angles="360"
       helper_size="0"
       simplify_individual_paths="false"
       simplify_just_coalesce="false" />
    <inkscape:path-effect
       effect="simplify"
       id="path-effect57"
       is_visible="true"
       lpeversion="1.3"
       threshold="0.00267081"
       steps="1"
       smooth_angles="360"
       helper_size="0"
       simplify_individual_paths="false"
       simplify_just_coalesce="false" />
    <style
       type="text/css"
       id="style1">*{stroke-linejoin: round; stroke-linecap: butt}</style>
  </defs>
  <g
     id="figure_1"
     transform="translate(16.076799,15.102448)">
    <g
       id="axes_1"
       transform="translate(5.8461124,-47.743221)">
      <g
         id="patch_2">
        <path
           id="path2"
           style="fill:#ffffff"
           d="m 93.398299,43.199798 c 1.944954,1.564637 3.87258,3.150666 5.846191,4.680176 2.25539,1.699701 4.54128,3.358088 6.78076,5.078613 3.82445,2.938193 0.85178,6.803973 -2.96924,3.861328 -2.24231,-1.726845 -4.539551,-3.381632 -6.796871,-5.088867 -1.244327,-0.964775 -2.471577,-1.950453 -3.695801,-2.939941 V 49.2247 c 0.04312,2.08074 0.615579,4.083341 1.040039,6.105469 0.36418,1.804012 0.584303,3.629964 0.720703,5.463867 0.11536,1.968313 0.134338,3.941026 0.156738,5.91211 0.0758,1.915654 -0.06153,3.826276 -0.205078,5.734863 -0.0172,0.2233 -0.03407,0.446135 -0.05127,0.669434 -0.271368,3.528371 -2.958923,4.265976 -4.22461,2.509277 v 244.77979 h 558 V 43.199798 Z" />
      </g>
      <g
         id="line2d_13">
        <path
           d="m 115.36364,200.28026 0.2093,-7.83467 1.11997,-3.32857 1.27485,-2.58279 1.35697,-2.19403 1.41068,-1.94352 2.92951,-3.39027 3.02878,-2.94154 3.09882,-2.62949 3.15227,-2.39366 3.19513,-2.20548 4.85767,-3.02315 4.92113,-2.74324 4.97314,-2.51118 5.01685,-2.31251 6.7465,-2.81565 6.8019,-2.54781 6.84864,-2.31095 6.88854,-2.09761 6.92282,-1.90271 8.69465,-2.12659 8.73319,-1.86835 8.76524,-1.62891 8.79168,-1.40498 8.81324,-1.19412 8.83051,-0.99442 8.84393,-0.80445 10.62559,-0.72652 10.63462,-0.47817 10.63886,-0.24124 10.63883,-0.0144 10.63491,0.20326 10.6275,0.41277 12.16647,0.71206 13.81893,1.03911 13.80542,1.26365 13.7896,1.47601 13.77174,1.67765 15.46956,2.1167 15.44226,2.34838 15.41285,2.57012 15.38149,2.78351 15.34832,2.99001 15.31342,3.191 16.97196,3.77621 16.92453,4.01521 16.8748,4.25205 16.82263,4.4885 16.76785,4.72621 15.04192,4.45922 14.99304,4.65734 14.94169,4.85972 14.88764,5.06735 3.30038,1.15483 v 0"
           clip-path="url(#p6609d689f0)"
           style="fill:none;stroke:#000000;stroke-width:1.5;stroke-linecap:square"
           id="path51" />
      </g>
      <g
         id="line2d_14">
        <path
           d="m 115.36364,200.28026 3.18297,7.15905 2.27232,2.65862 2.11743,1.91852 2.03531,1.53542 1.98161,1.29059 3.85505,2.10143 3.7558,1.67539 3.68574,1.38603 3.6323,1.17289 5.37045,1.45951 5.29648,1.18573 5.23729,0.97494 6.90827,1.04307 6.83811,0.8102 8.46732,0.75471 8.39414,0.52592 9.99463,0.39126 11.5739,0.19493 11.5009,-0.0259 13.07596,-0.23904 16.27232,-0.53446 19.46159,-0.88183 25.90836,-1.41302 44.34384,-2.66547 26.68151,-1.87639 36.8064,-2.83023 152.62795,-11.99048 65.74211,-4.83121 v 0"
           clip-path="url(#p6609d689f0)"
           style="fill:none;stroke:#000000;stroke-width:1.5;stroke-linecap:square"
           id="path52" />
      </g>
    </g>
  </g>
  <defs
     id="defs56">
    <clipPath
       id="p6609d689f0">
      <rect
         x="90"
         y="43.2"
         width="558"
         height="277.2"
         id="rect56" />
    </clipPath>
  </defs>
</svg>
